<?xml version="1.0" standalone="no"?>
 <!DOCTYPE svg PUBLIC "-//W3C//DTD SVG 1.1//EN" 
 "http://www.w3.org/Graphics/SVG/1.1/DTD/svg11.dtd"> 
<svg xmlns="http://www.w3.org/2000/svg" version="1.1" 
    width="27.94cm" height="21.59cm" viewBox="0 0 110000 85000 ">
<title>SVG Picture created as green_laser.svg date 2019/07/20 21:24:53 </title>
  <desc>Picture generated by Eeschema-SVG </desc>
<g style="fill:#000000; fill-opacity:1;stroke:#000000; stroke-opacity:1;
stroke-linecap:round; stroke-linejoin:round; "
 transform="translate(0 0) scale(1 1)">
</g>
<g style="fill:#000000; fill-opacity:0.0; 
stroke:#000000; stroke-width:0; stroke-opacity:1; 
stroke-linecap:round; stroke-linejoin:round;">
<g >
</g>
<g style="fill:#840000; fill-opacity:0.0; 
stroke:#840000; stroke-width:0; stroke-opacity:1; 
stroke-linecap:round; stroke-linejoin:round;">
</g>
<g style="fill:#840000; fill-opacity:0.0; 
stroke:#840000; stroke-width:100; stroke-opacity:1; 
stroke-linecap:round; stroke-linejoin:round;">
<circle cx="38500" cy="43000" r="1110" /> 
</g>
<g style="fill:#840000; fill-opacity:0.0; 
stroke:#840000; stroke-width:60; stroke-opacity:1; 
stroke-linecap:round; stroke-linejoin:round;">
<path style="fill:#840000; fill-opacity:0.0; 
stroke:#840000; stroke-width:60; stroke-opacity:1; 
stroke-linecap:round; stroke-linejoin:round;fill:none"
d="M 38250,42750
39000,42000
Z" /> 
<path style="fill:#840000; fill-opacity:0.0; 
stroke:#840000; stroke-width:60; stroke-opacity:1; 
stroke-linecap:round; stroke-linejoin:round;fill:none"
d="M 38250,43250
39000,44000
39000,44000
Z" /> 
</g>
<g style="fill:#840000; fill-opacity:0.0; 
stroke:#840000; stroke-width:200; stroke-opacity:1; 
stroke-linecap:round; stroke-linejoin:round;">
<path style="fill:#840000; fill-opacity:0.0; 
stroke:#840000; stroke-width:200; stroke-opacity:1; 
stroke-linecap:round; stroke-linejoin:round;fill:none"
d="M 38250,42250
38250,43750
38250,43750
Z" /> 
</g>
<g style="fill:#840000; fill-opacity:1.0; 
stroke:#840000; stroke-width:60; stroke-opacity:1; 
stroke-linecap:round; stroke-linejoin:round;">
<path style="fill:#840000; fill-opacity:1.0; 
stroke:#840000; stroke-width:60; stroke-opacity:1; 
stroke-linecap:round; stroke-linejoin:round;fill-rule:evenodd;"
d="M 38500,43700
38700,43500
38900,43900
38500,43700
38500,43700
Z" /> 
</g>
<g style="fill:#840000; fill-opacity:0.0; 
stroke:#840000; stroke-width:60; stroke-opacity:1; 
stroke-linecap:round; stroke-linejoin:round;">
<path d="M38250 43000
L36000 43000
" />
<path d="M37260 43570
L36970 43570
" />
<path d="M37120 43570
L37120 43070
L37070 43140
L37020 43190
L36970 43210
" />
<path d="M39000 44000
L39000 45000
" />
<path d="M39120 44640
L39100 44610
L39070 44570
L39070 44450
L39100 44400
L39120 44380
L39170 44350
L39210 44350
L39290 44380
L39570 44660
L39570 44350
" />
<path d="M39000 42000
L39000 41000
" />
<path d="M39070 41660
L39070 41350
L39260 41520
L39260 41450
L39290 41400
L39310 41380
L39360 41350
L39480 41350
L39520 41380
L39550 41400
L39570 41450
L39570 41590
L39550 41640
L39520 41660
" />
</g>
<g style="fill:#008484; fill-opacity:0.0; 
stroke:#008484; stroke-width:60; stroke-opacity:1; 
stroke-linecap:round; stroke-linejoin:round;">
<path d="M40390 42830
L40340 42810
L40290 42760
L40220 42690
L40170 42660
L40130 42660
" />
<path d="M40150 42780
L40100 42760
L40050 42710
L40030 42610
L40030 42450
L40050 42350
L40100 42310
L40150 42280
L40240 42280
L40290 42310
L40340 42350
L40360 42450
L40360 42610
L40340 42710
L40290 42760
L40240 42780
L40150 42780
" />
<path d="M40840 42780
L40550 42780
" />
<path d="M40700 42780
L40700 42280
L40650 42350
L40600 42400
L40550 42420
" />
<path d="M40020 43240
L40050 43220
L40100 43190
L40210 43190
L40260 43220
L40290 43240
L40310 43290
L40310 43330
L40290 43410
L40000 43690
L40310 43690
" />
<path d="M40480 43190
L40810 43690
" />
<path d="M40810 43190
L40480 43690
" />
</g>
</g>
<g style="fill:#008484; fill-opacity:0.0; 
stroke:#008484; stroke-width:0; stroke-opacity:1; 
stroke-linecap:round; stroke-linejoin:round;">
<g >
</g>
<g style="fill:#840000; fill-opacity:0.0; 
stroke:#840000; stroke-width:0; stroke-opacity:1; 
stroke-linecap:round; stroke-linejoin:round;">
</g>
<g style="fill:#840000; fill-opacity:1.0; 
stroke:#840000; stroke-width:60; stroke-opacity:1; 
stroke-linecap:round; stroke-linejoin:round;">
<rect x="23700" y="37050" width="1600" height="100" rx="0" />
<rect x="23700" y="35800" width="1600" height="100" rx="0" />
<rect x="23980" y="37280" width="1020" height="200" rx="0" />
<rect x="23980" y="36030" width="1020" height="200" rx="0" />
</g>
<g style="fill:#840000; fill-opacity:0.0; 
stroke:#840000; stroke-width:60; stroke-opacity:1; 
stroke-linecap:round; stroke-linejoin:round;">
<path style="fill:#840000; fill-opacity:0.0; 
stroke:#840000; stroke-width:60; stroke-opacity:1; 
stroke-linecap:round; stroke-linejoin:round;fill:none"
d="M 24500,37100
24500,37000
Z" /> 
<path style="fill:#840000; fill-opacity:0.0; 
stroke:#840000; stroke-width:60; stroke-opacity:1; 
stroke-linecap:round; stroke-linejoin:round;fill:none"
d="M 24500,36900
24500,36800
Z" /> 
<path style="fill:#840000; fill-opacity:0.0; 
stroke:#840000; stroke-width:60; stroke-opacity:1; 
stroke-linecap:round; stroke-linejoin:round;fill:none"
d="M 24500,36700
24500,36600
Z" /> 
<path style="fill:#840000; fill-opacity:0.0; 
stroke:#840000; stroke-width:60; stroke-opacity:1; 
stroke-linecap:round; stroke-linejoin:round;fill:none"
d="M 24500,36500
24500,36400
Z" /> 
<path style="fill:#840000; fill-opacity:0.0; 
stroke:#840000; stroke-width:60; stroke-opacity:1; 
stroke-linecap:round; stroke-linejoin:round;fill:none"
d="M 24500,36300
24500,36200
Z" /> 
<path style="fill:#840000; fill-opacity:0.0; 
stroke:#840000; stroke-width:60; stroke-opacity:1; 
stroke-linecap:round; stroke-linejoin:round;fill:none"
d="M 24500,35800
24500,35500
Z" /> 
</g>
<g style="fill:#840000; fill-opacity:0.0; 
stroke:#840000; stroke-width:100; stroke-opacity:1; 
stroke-linecap:round; stroke-linejoin:round;">
<path style="fill:#840000; fill-opacity:0.0; 
stroke:#840000; stroke-width:100; stroke-opacity:1; 
stroke-linecap:round; stroke-linejoin:round;fill:none"
d="M 24600,35450
25000,35450
Z" /> 
<path style="fill:#840000; fill-opacity:0.0; 
stroke:#840000; stroke-width:100; stroke-opacity:1; 
stroke-linecap:round; stroke-linejoin:round;fill:none"
d="M 24800,35250
24800,35650
Z" /> 
</g>
<g style="fill:#840000; fill-opacity:0.0; 
stroke:#840000; stroke-width:60; stroke-opacity:1; 
stroke-linecap:round; stroke-linejoin:round;">
<path d="M24500 35500
L24500 34500
" />
<path d="M24500 37500
L24500 38500
" />
</g>
<g style="fill:#008484; fill-opacity:0.0; 
stroke:#008484; stroke-width:60; stroke-opacity:1; 
stroke-linecap:round; stroke-linejoin:round;">
<path d="M25890 36020
L25960 36040
L25990 36070
L26010 36110
L26010 36190
L25990 36230
L25960 36260
L25920 36280
L25730 36280
L25730 35780
L25890 35780
L25940 35810
L25960 35830
L25990 35880
L25990 35920
L25960 35970
L25940 36000
L25890 36020
L25730 36020
" />
<path d="M26150 35780
L26440 35780
" />
<path d="M26300 36280
L26300 35780
" />
<path d="M26870 36280
L26580 36280
" />
<path d="M26730 36280
L26730 35780
L26680 35850
L26630 35900
L26580 35920
" />
<path d="M25670 36690
L25980 36690
L25820 36880
L25890 36880
L25940 36910
L25960 36930
L25980 36980
L25980 37100
L25960 37140
L25940 37170
L25890 37190
L25750 37190
L25700 37170
L25670 37140
" />
<path d="M26130 36690
L26290 37190
L26460 36690
" />
</g>
</g>
<g style="fill:#008484; fill-opacity:0.0; 
stroke:#008484; stroke-width:0; stroke-opacity:1; 
stroke-linecap:round; stroke-linejoin:round;">
<g >
</g>
<g style="fill:#840000; fill-opacity:0.0; 
stroke:#840000; stroke-width:0; stroke-opacity:1; 
stroke-linecap:round; stroke-linejoin:round;">
</g>
<g style="fill:#840000; fill-opacity:0.0; 
stroke:#840000; stroke-width:60; stroke-opacity:1; 
stroke-linecap:round; stroke-linejoin:round;">
<circle cx="26700" cy="48500" r="200" /> 
<circle cx="28300" cy="48500" r="200" /> 
<path style="fill:#840000; fill-opacity:0.0; 
stroke:#840000; stroke-width:60; stroke-opacity:1; 
stroke-linecap:round; stroke-linejoin:round;fill:none"
d="M 27500,48000
27500,47300
Z" /> 
<path style="fill:#840000; fill-opacity:0.0; 
stroke:#840000; stroke-width:60; stroke-opacity:1; 
stroke-linecap:round; stroke-linejoin:round;fill:none"
d="M 28500,48000
26500,48000
Z" /> 
<path d="M26500 48500
L25500 48500
" />
<path d="M28500 48500
L29500 48500
" />
</g>
<g style="fill:#008484; fill-opacity:0.0; 
stroke:#008484; stroke-width:60; stroke-opacity:1; 
stroke-linecap:round; stroke-linejoin:round;">
<path d="M26830 45870
L26900 45890
L27020 45890
L27070 45870
L27090 45840
L27110 45800
L27110 45750
L27090 45700
L27070 45680
L27020 45650
L26920 45630
L26880 45610
L26850 45580
L26830 45530
L26830 45490
L26850 45440
L26880 45420
L26920 45390
L27040 45390
L27110 45420
" />
<path d="M27280 45390
L27400 45890
L27500 45530
L27590 45890
L27710 45390
" />
<path d="M28160 45890
L27880 45890
" />
<path d="M28020 45890
L28020 45390
L27970 45460
L27920 45510
L27880 45530
" />
<path d="M25970 46780
L26040 46800
L26160 46800
L26210 46780
L26230 46750
L26260 46710
L26260 46660
L26230 46610
L26210 46590
L26160 46560
L26070 46540
L26020 46520
L26000 46490
L25970 46440
L25970 46400
L26000 46350
L26020 46330
L26070 46300
L26190 46300
L26260 46330
" />
<path d="M26420 46300
L26540 46800
L26640 46440
L26730 46800
L26850 46300
" />
<path d="M26920 46850
L27300 46850
" />
<path d="M27420 46800
L27420 46300
L27610 46300
L27660 46330
L27690 46350
L27710 46400
L27710 46470
L27690 46520
L27660 46540
L27610 46560
L27420 46560
" />
<path d="M28140 46470
L28140 46800
" />
<path d="M27920 46470
L27920 46730
L27950 46780
L28000 46800
L28070 46800
L28110 46780
L28140 46750
" />
<path d="M28350 46780
L28400 46800
L28500 46800
L28540 46780
L28570 46730
L28570 46710
L28540 46660
L28500 46630
L28420 46630
L28380 46610
L28350 46560
L28350 46540
L28380 46490
L28420 46470
L28500 46470
L28540 46490
" />
<path d="M28780 46800
L28780 46300
" />
<path d="M29000 46800
L29000 46540
L28970 46490
L28920 46470
L28850 46470
L28800 46490
L28780 46520
" />
</g>
</g>
<g style="fill:#008484; fill-opacity:0.0; 
stroke:#008484; stroke-width:0; stroke-opacity:1; 
stroke-linecap:round; stroke-linejoin:round;">
<g >
</g>
<g style="fill:#840000; fill-opacity:0.0; 
stroke:#840000; stroke-width:0; stroke-opacity:1; 
stroke-linecap:round; stroke-linejoin:round;">
</g>
<g style="fill:#840000; fill-opacity:0.0; 
stroke:#840000; stroke-width:100; stroke-opacity:1; 
stroke-linecap:round; stroke-linejoin:round;">
<circle cx="52500" cy="26000" r="1110" /> 
</g>
<g style="fill:#840000; fill-opacity:0.0; 
stroke:#840000; stroke-width:60; stroke-opacity:1; 
stroke-linecap:round; stroke-linejoin:round;">
<path style="fill:#840000; fill-opacity:0.0; 
stroke:#840000; stroke-width:60; stroke-opacity:1; 
stroke-linecap:round; stroke-linejoin:round;fill:none"
d="M 53750,25500
54000,25500
Z" /> 
<path style="fill:#840000; fill-opacity:0.0; 
stroke:#840000; stroke-width:60; stroke-opacity:1; 
stroke-linecap:round; stroke-linejoin:round;fill:none"
d="M 53500,25000
53750,25000
Z" /> 
<path style="fill:#840000; fill-opacity:0.0; 
stroke:#840000; stroke-width:60; stroke-opacity:1; 
stroke-linecap:round; stroke-linejoin:round;fill:none"
d="M 52750,25750
52000,25000
Z" /> 
<path style="fill:#840000; fill-opacity:0.0; 
stroke:#840000; stroke-width:60; stroke-opacity:1; 
stroke-linecap:round; stroke-linejoin:round;fill:none"
d="M 54500,24750
53750,25500
53750,25250
Z" /> 
<path style="fill:#840000; fill-opacity:0.0; 
stroke:#840000; stroke-width:60; stroke-opacity:1; 
stroke-linecap:round; stroke-linejoin:round;fill:none"
d="M 54250,24250
53500,25000
53500,24750
Z" /> 
<path style="fill:#840000; fill-opacity:0.0; 
stroke:#840000; stroke-width:60; stroke-opacity:1; 
stroke-linecap:round; stroke-linejoin:round;fill:none"
d="M 52750,26250
52000,27000
52000,27000
Z" /> 
</g>
<g style="fill:#840000; fill-opacity:0.0; 
stroke:#840000; stroke-width:200; stroke-opacity:1; 
stroke-linecap:round; stroke-linejoin:round;">
<path style="fill:#840000; fill-opacity:0.0; 
stroke:#840000; stroke-width:200; stroke-opacity:1; 
stroke-linecap:round; stroke-linejoin:round;fill:none"
d="M 52750,25250
52750,26750
52750,26750
Z" /> 
</g>
<g style="fill:#840000; fill-opacity:1.0; 
stroke:#840000; stroke-width:60; stroke-opacity:1; 
stroke-linecap:round; stroke-linejoin:round;">
<path style="fill:#840000; fill-opacity:1.0; 
stroke:#840000; stroke-width:60; stroke-opacity:1; 
stroke-linecap:round; stroke-linejoin:round;fill-rule:evenodd;"
d="M 52500,26700
52300,26500
52100,26900
52500,26700
52500,26700
Z" /> 
</g>
<g style="fill:#840000; fill-opacity:0.0; 
stroke:#840000; stroke-width:60; stroke-opacity:1; 
stroke-linecap:round; stroke-linejoin:round;">
<path d="M52000 25000
L52000 24000
" />
<path d="M52570 24350
L52570 24640
" />
<path d="M52570 24500
L52070 24500
L52140 24540
L52190 24590
L52210 24640
" />
<path d="M52000 27000
L52000 28000
" />
<path d="M52120 27640
L52100 27610
L52070 27570
L52070 27450
L52100 27400
L52120 27380
L52170 27350
L52210 27350
L52290 27380
L52570 27660
L52570 27350
" />
</g>
<g style="fill:#008484; fill-opacity:0.0; 
stroke:#008484; stroke-width:60; stroke-opacity:1; 
stroke-linecap:round; stroke-linejoin:round;">
<path d="M55250 25830
L55200 25810
L55150 25760
L55080 25690
L55030 25660
L54990 25660
" />
<path d="M55010 25780
L54960 25760
L54910 25710
L54890 25610
L54890 25450
L54910 25350
L54960 25310
L55010 25280
L55100 25280
L55150 25310
L55200 25350
L55220 25450
L55220 25610
L55200 25710
L55150 25760
L55100 25780
L55010 25780
" />
<path d="M55390 25280
L55700 25280
L55530 25470
L55600 25470
L55650 25500
L55680 25520
L55700 25570
L55700 25690
L55680 25730
L55650 25760
L55600 25780
L55460 25780
L55410 25760
L55390 25730
" />
<path d="M55250 26740
L55200 26720
L55150 26670
L55080 26600
L55040 26570
L54990 26570
" />
<path d="M55010 26690
L54960 26670
L54920 26620
L54890 26520
L54890 26360
L54920 26260
L54960 26220
L55010 26190
L55110 26190
L55150 26220
L55200 26260
L55230 26360
L55230 26520
L55200 26620
L55150 26670
L55110 26690
L55010 26690
" />
<path d="M55320 26740
L55700 26740
" />
<path d="M55820 26690
L55820 26190
L56010 26190
L56060 26220
L56080 26240
L56110 26290
L56110 26360
L56080 26410
L56060 26430
L56010 26450
L55820 26450
" />
<path d="M56320 26690
L56320 26190
" />
<path d="M56540 26690
L56540 26430
L56510 26380
L56460 26360
L56390 26360
L56340 26380
L56320 26410
" />
<path d="M56840 26690
L56800 26670
L56770 26640
L56750 26600
L56750 26450
L56770 26410
L56800 26380
L56840 26360
L56920 26360
L56960 26380
L56990 26410
L57010 26450
L57010 26600
L56990 26640
L56960 26670
L56920 26690
L56840 26690
" />
<path d="M57150 26360
L57340 26360
" />
<path d="M57230 26190
L57230 26620
L57250 26670
L57300 26690
L57340 26690
" />
<path d="M57580 26690
L57540 26670
L57510 26640
L57490 26600
L57490 26450
L57510 26410
L57540 26380
L57580 26360
L57650 26360
L57700 26380
L57730 26410
L57750 26450
L57750 26600
L57730 26640
L57700 26670
L57650 26690
L57580 26690
" />
<path d="M57840 26740
L58230 26740
" />
<path d="M58340 26690
L58340 26190
L58630 26690
L58630 26190
" />
<path d="M58870 26690
L58870 26190
L59060 26190
L59110 26220
L59130 26240
L59150 26290
L59150 26360
L59130 26410
L59110 26430
L59060 26450
L58870 26450
" />
<path d="M59370 26690
L59370 26190
L59650 26690
L59650 26190
" />
</g>
</g>
<g style="fill:#008484; fill-opacity:0.0; 
stroke:#008484; stroke-width:0; stroke-opacity:1; 
stroke-linecap:round; stroke-linejoin:round;">
<g >
</g>
<g style="fill:#840000; fill-opacity:0.0; 
stroke:#840000; stroke-width:0; stroke-opacity:1; 
stroke-linecap:round; stroke-linejoin:round;">
</g>
<g style="fill:#840000; fill-opacity:0.0; 
stroke:#840000; stroke-width:60; stroke-opacity:1; 
stroke-linecap:round; stroke-linejoin:round;">
<path style="fill:#840000; fill-opacity:0.0; 
stroke:#840000; stroke-width:60; stroke-opacity:1; 
stroke-linecap:round; stroke-linejoin:round;fill:none"
d="M 41900,29000
42500,28400
Z" /> 
<path style="fill:#840000; fill-opacity:0.0; 
stroke:#840000; stroke-width:60; stroke-opacity:1; 
stroke-linecap:round; stroke-linejoin:round;fill:none"
d="M 41900,28800
42500,28600
Z" /> 
<path style="fill:#840000; fill-opacity:0.0; 
stroke:#840000; stroke-width:60; stroke-opacity:1; 
stroke-linecap:round; stroke-linejoin:round;fill:none"
d="M 41900,28600
42500,28800
Z" /> 
<path style="fill:#840000; fill-opacity:0.0; 
stroke:#840000; stroke-width:60; stroke-opacity:1; 
stroke-linecap:round; stroke-linejoin:round;fill:none"
d="M 41900,28400
42500,29000
Z" /> 
<path style="fill:#840000; fill-opacity:0.0; 
stroke:#840000; stroke-width:60; stroke-opacity:1; 
stroke-linecap:round; stroke-linejoin:round;fill:none"
d="M 42100,28400
42300,29000
Z" /> 
<path style="fill:#840000; fill-opacity:0.0; 
stroke:#840000; stroke-width:60; stroke-opacity:1; 
stroke-linecap:round; stroke-linejoin:round;fill:none"
d="M 42200,28700
42200,29100
Z" /> 
<path style="fill:#840000; fill-opacity:0.0; 
stroke:#840000; stroke-width:60; stroke-opacity:1; 
stroke-linecap:round; stroke-linejoin:round;fill:none"
d="M 42200,28700
42200,28300
Z" /> 
<path style="fill:#840000; fill-opacity:0.0; 
stroke:#840000; stroke-width:60; stroke-opacity:1; 
stroke-linecap:round; stroke-linejoin:round;fill:none"
d="M 42300,28400
42100,29000
Z" /> 
<path style="fill:#840000; fill-opacity:0.0; 
stroke:#840000; stroke-width:60; stroke-opacity:1; 
stroke-linecap:round; stroke-linejoin:round;fill:none"
d="M 42800,28700
41800,28700
Z" /> 
<path style="fill:#840000; fill-opacity:0.0; 
stroke:#840000; stroke-width:60; stroke-opacity:1; 
stroke-linecap:round; stroke-linejoin:round;fill:none"
d="M 42900,29000
42900,30000
Z" /> 
<path style="fill:#840000; fill-opacity:0.0; 
stroke:#840000; stroke-width:60; stroke-opacity:1; 
stroke-linecap:round; stroke-linejoin:round;fill:none"
d="M 44000,28300
43800,28300
Z" /> 
<path style="fill:#840000; fill-opacity:0.0; 
stroke:#840000; stroke-width:60; stroke-opacity:1; 
stroke-linecap:round; stroke-linejoin:round;fill:none"
d="M 44500,29500
41500,29500
Z" /> 
<path style="fill:#840000; fill-opacity:0.0; 
stroke:#840000; stroke-width:60; stroke-opacity:1; 
stroke-linecap:round; stroke-linejoin:round;fill:none"
d="M 43400,28900
44000,28300
44000,28500
Z" /> 
</g>
<g style="fill:#840000; fill-opacity:1.0; 
stroke:#840000; stroke-width:60; stroke-opacity:1; 
stroke-linecap:round; stroke-linejoin:round;">
<path style="fill:#840000; fill-opacity:1.0; 
stroke:#840000; stroke-width:60; stroke-opacity:1; 
stroke-linecap:round; stroke-linejoin:round;fill-rule:evenodd;"
d="M 43900,29000
42900,29500
43900,30000
Z" /> 
</g>
<g style="fill:#840000; fill-opacity:0.0; 
stroke:#840000; stroke-width:60; stroke-opacity:1; 
stroke-linecap:round; stroke-linejoin:round;">
<path style="fill:#840000; fill-opacity:0.0; 
stroke:#840000; stroke-width:60; stroke-opacity:1; 
stroke-linecap:round; stroke-linejoin:round;fill:none"
d="M 42900,28900
43500,28300
43500,28500
43500,28300
43300,28300
Z" /> 
<path d="M44500 29500
L45500 29500
" />
<path d="M45140 29370
L44850 29370
" />
<path d="M45000 29370
L45000 28870
L44950 28940
L44900 28990
L44850 29010
" />
<path d="M41500 29500
L40500 29500
" />
<path d="M40830 28870
L41140 28870
L40970 29060
L41040 29060
L41090 29090
L41110 29110
L41140 29160
L41140 29280
L41110 29320
L41090 29350
L41040 29370
L40900 29370
L40850 29350
L40830 29320
" />
</g>
<g style="fill:#008484; fill-opacity:0.0; 
stroke:#008484; stroke-width:60; stroke-opacity:1; 
stroke-linecap:round; stroke-linejoin:round;">
<path d="M42660 26890
L42420 26890
L42420 26390
" />
<path d="M42830 26890
L42830 26390
L42950 26390
L43020 26420
L43070 26460
L43090 26510
L43110 26610
L43110 26680
L43090 26770
L43070 26820
L43020 26870
L42950 26890
L42830 26890
" />
<path d="M43590 26890
L43300 26890
" />
<path d="M43450 26890
L43450 26390
L43400 26460
L43350 26510
L43300 26530
" />
<path d="M41330 27800
L41330 27300
L41520 27300
L41570 27330
L41590 27350
L41610 27400
L41610 27470
L41590 27520
L41570 27540
L41520 27560
L41330 27560
" />
<path d="M42070 27800
L41830 27800
L41830 27300
" />
<path d="M42160 27300
L42450 27300
" />
<path d="M42300 27800
L42300 27300
" />
<path d="M42850 27300
L42610 27300
L42590 27540
L42610 27520
L42660 27490
L42780 27490
L42830 27520
L42850 27540
L42880 27590
L42880 27710
L42850 27750
L42830 27780
L42780 27800
L42660 27800
L42610 27780
L42590 27750
" />
<path d="M42970 27850
L43350 27850
" />
<path d="M43710 27300
L43470 27300
L43450 27540
L43470 27520
L43520 27490
L43640 27490
L43690 27520
L43710 27540
L43730 27590
L43730 27710
L43710 27750
L43690 27780
L43640 27800
L43520 27800
L43470 27780
L43450 27750
" />
<path d="M44210 27800
L43920 27800
" />
<path d="M44070 27800
L44070 27300
L44020 27370
L43970 27420
L43920 27440
" />
<path d="M44520 27300
L44570 27300
L44610 27330
L44640 27350
L44660 27400
L44690 27490
L44690 27610
L44660 27710
L44640 27750
L44610 27780
L44570 27800
L44520 27800
L44470 27780
L44450 27750
L44420 27710
L44400 27610
L44400 27490
L44420 27400
L44450 27350
L44470 27330
L44520 27300
" />
</g>
</g>
<g style="fill:#008484; fill-opacity:0.0; 
stroke:#008484; stroke-width:0; stroke-opacity:1; 
stroke-linecap:round; stroke-linejoin:round;">
<g >
</g>
<g style="fill:#840000; fill-opacity:0.0; 
stroke:#840000; stroke-width:0; stroke-opacity:1; 
stroke-linecap:round; stroke-linejoin:round;">
</g>
<g style="fill:#840000; fill-opacity:0.0; 
stroke:#840000; stroke-width:80; stroke-opacity:1; 
stroke-linecap:round; stroke-linejoin:round;">
<path style="fill:#840000; fill-opacity:0.0; 
stroke:#840000; stroke-width:80; stroke-opacity:1; 
stroke-linecap:round; stroke-linejoin:round;fill:none"
d="M 30500,41500
31500,41500
Z" /> 
</g>
<g style="fill:#840000; fill-opacity:0.0; 
stroke:#840000; stroke-width:60; stroke-opacity:1; 
stroke-linecap:round; stroke-linejoin:round;">
<path style="fill:#840000; fill-opacity:0.0; 
stroke:#840000; stroke-width:60; stroke-opacity:1; 
stroke-linecap:round; stroke-linejoin:round;fill:none"
d="M 31000,41500
31000,40500
Z" /> 
</g>
<g style="fill:#840000; fill-opacity:0.0; 
stroke:#840000; stroke-width:80; stroke-opacity:1; 
stroke-linecap:round; stroke-linejoin:round;">
<path style="fill:#840000; fill-opacity:0.0; 
stroke:#840000; stroke-width:80; stroke-opacity:1; 
stroke-linecap:round; stroke-linejoin:round;fill:none"
d="M 30500,40500
31500,40500
31000,41500
30500,40500
Z" /> 
</g>
<g style="fill:#840000; fill-opacity:0.0; 
stroke:#840000; stroke-width:60; stroke-opacity:1; 
stroke-linecap:round; stroke-linejoin:round;">
<path style="fill:#840000; fill-opacity:0.0; 
stroke:#840000; stroke-width:60; stroke-opacity:1; 
stroke-linecap:round; stroke-linejoin:round;fill:none"
d="M 30700,42200
30100,42800
30100,42500
30100,42800
30400,42800
Z" /> 
<path style="fill:#840000; fill-opacity:0.0; 
stroke:#840000; stroke-width:60; stroke-opacity:1; 
stroke-linecap:round; stroke-linejoin:round;fill:none"
d="M 30700,41700
30100,42300
30100,42000
30100,42300
30400,42300
Z" /> 
<path d="M31000 41500
L31000 42500
" />
<path d="M31000 40500
L31000 39500
" />
</g>
<g style="fill:#008484; fill-opacity:0.0; 
stroke:#008484; stroke-width:60; stroke-opacity:1; 
stroke-linecap:round; stroke-linejoin:round;">
<path d="M31930 40800
L31930 40300
L32050 40300
L32120 40330
L32160 40370
L32190 40420
L32210 40520
L32210 40590
L32190 40680
L32160 40730
L32120 40780
L32050 40800
L31930 40800
" />
<path d="M32690 40800
L32400 40800
" />
<path d="M32550 40800
L32550 40300
L32500 40370
L32450 40420
L32400 40440
" />
<path d="M32160 41710
L31930 41710
L31930 41210
" />
<path d="M32330 41450
L32500 41450
" />
<path d="M32570 41710
L32330 41710
L32330 41210
L32570 41210
" />
<path d="M32780 41710
L32780 41210
L32900 41210
L32970 41240
L33020 41280
L33040 41330
L33070 41430
L33070 41500
L33040 41590
L33020 41640
L32970 41690
L32900 41710
L32780 41710
" />
</g>
</g>
<g style="fill:#008484; fill-opacity:0.0; 
stroke:#008484; stroke-width:0; stroke-opacity:1; 
stroke-linecap:round; stroke-linejoin:round;">
<g >
</g>
<g style="fill:#840000; fill-opacity:0.0; 
stroke:#840000; stroke-width:0; stroke-opacity:1; 
stroke-linecap:round; stroke-linejoin:round;">
</g>
<g style="fill:#840000; fill-opacity:0.0; 
stroke:#840000; stroke-width:100; stroke-opacity:1; 
stroke-linecap:round; stroke-linejoin:round;">
<rect x="30600" y="44500" width="800" height="2000" rx="0" />
</g>
<g style="fill:#840000; fill-opacity:0.0; 
stroke:#840000; stroke-width:60; stroke-opacity:1; 
stroke-linecap:round; stroke-linejoin:round;">
<path d="M31000 44500
L31000 44000
" />
<path d="M31000 46500
L31000 47000
" />
</g>
<g style="fill:#008484; fill-opacity:0.0; 
stroke:#008484; stroke-width:60; stroke-opacity:1; 
stroke-linecap:round; stroke-linejoin:round;">
<path d="M32130 45280
L31970 45040
" />
<path d="M31850 45280
L31850 44780
L32040 44780
L32080 44810
L32110 44830
L32130 44880
L32130 44950
L32110 45000
L32080 45020
L32040 45040
L31850 45040
" />
<path d="M32320 44830
L32350 44810
L32390 44780
L32510 44780
L32560 44810
L32580 44830
L32610 44880
L32610 44920
L32580 45000
L32300 45280
L32610 45280
" />
<path d="M31790 45690
L32100 45690
L31940 45880
L32010 45880
L32050 45910
L32080 45930
L32100 45980
L32100 46100
L32080 46140
L32050 46170
L32010 46190
L31860 46190
L31820 46170
L31790 46140
" />
<path d="M32270 45690
L32580 45690
L32410 45880
L32480 45880
L32530 45910
L32550 45930
L32580 45980
L32580 46100
L32550 46140
L32530 46170
L32480 46190
L32340 46190
L32290 46170
L32270 46140
" />
<path d="M32890 45690
L32940 45690
L32980 45720
L33010 45740
L33030 45790
L33050 45880
L33050 46000
L33030 46100
L33010 46140
L32980 46170
L32940 46190
L32890 46190
L32840 46170
L32820 46140
L32790 46100
L32770 46000
L32770 45880
L32790 45790
L32820 45740
L32840 45720
L32890 45690
" />
</g>
</g>
<g style="fill:#008484; fill-opacity:0.0; 
stroke:#008484; stroke-width:0; stroke-opacity:1; 
stroke-linecap:round; stroke-linejoin:round;">
<g >
</g>
<g style="fill:#840000; fill-opacity:0.0; 
stroke:#840000; stroke-width:0; stroke-opacity:1; 
stroke-linecap:round; stroke-linejoin:round;">
</g>
<g style="fill:#840000; fill-opacity:0.0; 
stroke:#840000; stroke-width:100; stroke-opacity:1; 
stroke-linecap:round; stroke-linejoin:round;">
<rect x="51600" y="45000" width="800" height="2000" rx="0" />
</g>
<g style="fill:#840000; fill-opacity:0.0; 
stroke:#840000; stroke-width:60; stroke-opacity:1; 
stroke-linecap:round; stroke-linejoin:round;">
<path d="M52000 45000
L52000 44500
" />
<path d="M52000 47000
L52000 47500
" />
</g>
<g style="fill:#008484; fill-opacity:0.0; 
stroke:#008484; stroke-width:60; stroke-opacity:1; 
stroke-linecap:round; stroke-linejoin:round;">
<path d="M53130 45780
L52970 45540
" />
<path d="M52850 45780
L52850 45280
L53040 45280
L53080 45310
L53110 45330
L53130 45380
L53130 45450
L53110 45500
L53080 45520
L53040 45540
L52850 45540
" />
<path d="M53580 45280
L53350 45280
L53320 45520
L53350 45500
L53390 45470
L53510 45470
L53560 45500
L53580 45520
L53610 45570
L53610 45690
L53580 45730
L53560 45760
L53510 45780
L53390 45780
L53350 45760
L53320 45730
" />
<path d="M52820 46240
L52840 46220
L52890 46190
L53010 46190
L53060 46220
L53080 46240
L53110 46290
L53110 46330
L53080 46410
L52800 46690
L53110 46690
" />
<path d="M53320 46690
L53320 46190
" />
<path d="M53370 46500
L53510 46690
" />
<path d="M53510 46360
L53320 46550
" />
</g>
</g>
<g style="fill:#008484; fill-opacity:0.0; 
stroke:#008484; stroke-width:0; stroke-opacity:1; 
stroke-linecap:round; stroke-linejoin:round;">
<g >
</g>
<g style="fill:#840000; fill-opacity:0.0; 
stroke:#840000; stroke-width:0; stroke-opacity:1; 
stroke-linecap:round; stroke-linejoin:round;">
</g>
<g style="fill:#840000; fill-opacity:0.0; 
stroke:#840000; stroke-width:100; stroke-opacity:1; 
stroke-linecap:round; stroke-linejoin:round;">
<rect x="51600" y="40500" width="800" height="2000" rx="0" />
</g>
<g style="fill:#840000; fill-opacity:0.0; 
stroke:#840000; stroke-width:60; stroke-opacity:1; 
stroke-linecap:round; stroke-linejoin:round;">
<path d="M52000 40500
L52000 40000
" />
<path d="M52000 42500
L52000 43000
" />
</g>
<g style="fill:#008484; fill-opacity:0.0; 
stroke:#008484; stroke-width:60; stroke-opacity:1; 
stroke-linecap:round; stroke-linejoin:round;">
<path d="M53130 41280
L52970 41040
" />
<path d="M52850 41280
L52850 40780
L53040 40780
L53080 40810
L53110 40830
L53130 40880
L53130 40950
L53110 41000
L53080 41020
L53040 41040
L52850 41040
" />
<path d="M53560 40950
L53560 41280
" />
<path d="M53440 40760
L53320 41110
L53630 41110
" />
<path d="M53110 42190
L52820 42190
" />
<path d="M52960 42190
L52960 41690
L52920 41760
L52870 41810
L52820 41830
" />
<path d="M53420 41690
L53460 41690
L53510 41720
L53540 41740
L53560 41790
L53580 41880
L53580 42000
L53560 42100
L53540 42140
L53510 42170
L53460 42190
L53420 42190
L53370 42170
L53350 42140
L53320 42100
L53300 42000
L53300 41880
L53320 41790
L53350 41740
L53370 41720
L53420 41690
" />
<path d="M53800 42190
L53800 41690
" />
<path d="M53850 42000
L53990 42190
" />
<path d="M53990 41860
L53800 42050
" />
</g>
</g>
<g style="fill:#008484; fill-opacity:0.0; 
stroke:#008484; stroke-width:0; stroke-opacity:1; 
stroke-linecap:round; stroke-linejoin:round;">
<g >
</g>
<g style="fill:#840000; fill-opacity:0.0; 
stroke:#840000; stroke-width:0; stroke-opacity:1; 
stroke-linecap:round; stroke-linejoin:round;">
</g>
<g style="fill:#840000; fill-opacity:0.0; 
stroke:#840000; stroke-width:200; stroke-opacity:1; 
stroke-linecap:round; stroke-linejoin:round;">
<path style="fill:#840000; fill-opacity:0.0; 
stroke:#840000; stroke-width:200; stroke-opacity:1; 
stroke-linecap:round; stroke-linejoin:round;fill:none"
d="M 37800,35800
37800,34200
Z" /> 
<path style="fill:#840000; fill-opacity:0.0; 
stroke:#840000; stroke-width:200; stroke-opacity:1; 
stroke-linecap:round; stroke-linejoin:round;fill:none"
d="M 37200,35800
37200,34200
Z" /> 
</g>
<g style="fill:#840000; fill-opacity:0.0; 
stroke:#840000; stroke-width:60; stroke-opacity:1; 
stroke-linecap:round; stroke-linejoin:round;">
<path d="M37100 35000
L36000 35000
" />
<path d="M37900 35000
L39000 35000
" />
</g>
<g style="fill:#008484; fill-opacity:0.0; 
stroke:#008484; stroke-width:60; stroke-opacity:1; 
stroke-linecap:round; stroke-linejoin:round;">
<path d="M37230 33410
L37260 33430
L37280 33500
L37280 33550
L37260 33620
L37210 33670
L37160 33690
L37070 33720
L37000 33720
L36900 33690
L36850 33670
L36810 33620
L36780 33550
L36780 33500
L36810 33430
L36830 33410
" />
<path d="M36830 33220
L36810 33190
L36780 33150
L36780 33030
L36810 32980
L36830 32960
L36880 32930
L36920 32930
L37000 32960
L37280 33240
L37280 32930
" />
<path d="M38140 33410
L38170 33430
L38190 33510
L38190 33550
L38170 33620
L38120 33670
L38070 33700
L37980 33720
L37910 33720
L37810 33700
L37760 33670
L37720 33620
L37690 33550
L37690 33510
L37720 33430
L37740 33410
" />
</g>
</g>
<g style="fill:#008484; fill-opacity:0.0; 
stroke:#008484; stroke-width:0; stroke-opacity:1; 
stroke-linecap:round; stroke-linejoin:round;">
<g >
</g>
<g style="fill:#840000; fill-opacity:0.0; 
stroke:#840000; stroke-width:0; stroke-opacity:1; 
stroke-linecap:round; stroke-linejoin:round;">
</g>
<g style="fill:#840000; fill-opacity:0.0; 
stroke:#840000; stroke-width:200; stroke-opacity:1; 
stroke-linecap:round; stroke-linejoin:round;">
<path style="fill:#840000; fill-opacity:0.0; 
stroke:#840000; stroke-width:200; stroke-opacity:1; 
stroke-linecap:round; stroke-linejoin:round;fill:none"
d="M 34200,46300
35800,46300
Z" /> 
<path style="fill:#840000; fill-opacity:0.0; 
stroke:#840000; stroke-width:200; stroke-opacity:1; 
stroke-linecap:round; stroke-linejoin:round;fill:none"
d="M 34200,45700
35800,45700
Z" /> 
</g>
<g style="fill:#840000; fill-opacity:0.0; 
stroke:#840000; stroke-width:60; stroke-opacity:1; 
stroke-linecap:round; stroke-linejoin:round;">
<path d="M35000 45600
L35000 44500
" />
<path d="M35000 46400
L35000 47500
" />
</g>
<g style="fill:#008484; fill-opacity:0.0; 
stroke:#008484; stroke-width:60; stroke-opacity:1; 
stroke-linecap:round; stroke-linejoin:round;">
<path d="M36580 45730
L36560 45760
L36490 45780
L36440 45780
L36370 45760
L36320 45710
L36300 45660
L36270 45570
L36270 45500
L36300 45400
L36320 45350
L36370 45310
L36440 45280
L36490 45280
L36560 45310
L36580 45330
" />
<path d="M37060 45780
L36770 45780
" />
<path d="M36920 45780
L36920 45280
L36870 45350
L36820 45400
L36770 45420
" />
<path d="M36580 46640
L36560 46670
L36480 46690
L36440 46690
L36370 46670
L36320 46620
L36290 46570
L36270 46480
L36270 46410
L36290 46310
L36320 46260
L36370 46220
L36440 46190
L36480 46190
L36560 46220
L36580 46240
" />
</g>
</g>
<g style="fill:#008400; fill-opacity:0.0; 
stroke:#008400; stroke-width:60; stroke-opacity:1; 
stroke-linecap:round; stroke-linejoin:round;">
<path d="M24500 38500
L24500 48500
" />
<path d="M24500 48500
L25500 48500
" />
<path d="M24500 23000
L24500 34500
" />
</g>
<g style="fill:#008400; fill-opacity:0.0; 
stroke:#008400; stroke-width:0; stroke-opacity:1; 
stroke-linecap:round; stroke-linejoin:round;">
<g >
</g>
<g style="fill:#840000; fill-opacity:0.0; 
stroke:#840000; stroke-width:0; stroke-opacity:1; 
stroke-linecap:round; stroke-linejoin:round;">
</g>
<g style="fill:#840000; fill-opacity:0.0; 
stroke:#840000; stroke-width:100; stroke-opacity:1; 
stroke-linecap:round; stroke-linejoin:round;">
<rect x="34600" y="36500" width="800" height="2000" rx="0" />
</g>
<g style="fill:#840000; fill-opacity:0.0; 
stroke:#840000; stroke-width:60; stroke-opacity:1; 
stroke-linecap:round; stroke-linejoin:round;">
<path d="M35000 36500
L35000 36000
" />
<path d="M35000 38500
L35000 39000
" />
</g>
<g style="fill:#008484; fill-opacity:0.0; 
stroke:#008484; stroke-width:60; stroke-opacity:1; 
stroke-linecap:round; stroke-linejoin:round;">
<path d="M36130 37280
L35970 37040
" />
<path d="M35850 37280
L35850 36780
L36040 36780
L36080 36810
L36110 36830
L36130 36880
L36130 36950
L36110 37000
L36080 37020
L36040 37040
L35850 37040
" />
<path d="M36300 36780
L36610 36780
L36440 36970
L36510 36970
L36560 37000
L36580 37020
L36610 37070
L36610 37190
L36580 37230
L36560 37260
L36510 37280
L36370 37280
L36320 37260
L36300 37230
" />
<path d="M36110 38190
L35820 38190
" />
<path d="M35960 38190
L35960 37690
L35920 37760
L35870 37810
L35820 37830
" />
<path d="M36320 38190
L36320 37690
" />
<path d="M36370 38000
L36510 38190
" />
<path d="M36510 37860
L36320 38050
" />
</g>
</g>
<g style="fill:#008400; fill-opacity:0.0; 
stroke:#008400; stroke-width:60; stroke-opacity:1; 
stroke-linecap:round; stroke-linejoin:round;">
<path d="M29500 48500
L31000 48500
" />
<path d="M35000 48500
L35000 47500
" />
<path d="M35000 39000
L35000 40000
" />
<path d="M36000 43000
L35000 43000
" />
</g>
<g style="fill:#008400; fill-opacity:0.0; 
stroke:#008400; stroke-width:0; stroke-opacity:1; 
stroke-linecap:round; stroke-linejoin:round;">
</g>
<g style="fill:#008400; fill-opacity:1.0; 
stroke:#008400; stroke-width:100; stroke-opacity:1; 
stroke-linecap:round; stroke-linejoin:round;">
<circle cx="35000" cy="43000" r="200" /> 
</g>
<g style="fill:#008400; fill-opacity:1.0; 
stroke:#008400; stroke-width:60; stroke-opacity:1; 
stroke-linecap:round; stroke-linejoin:round;">
</g>
<g style="fill:#008400; fill-opacity:0.0; 
stroke:#008400; stroke-width:60; stroke-opacity:1; 
stroke-linecap:round; stroke-linejoin:round;">
<path d="M35000 43000
L35000 44500
" />
<path d="M31000 47000
L31000 48500
" />
</g>
<g style="fill:#008400; fill-opacity:0.0; 
stroke:#008400; stroke-width:0; stroke-opacity:1; 
stroke-linecap:round; stroke-linejoin:round;">
</g>
<g style="fill:#008400; fill-opacity:1.0; 
stroke:#008400; stroke-width:100; stroke-opacity:1; 
stroke-linecap:round; stroke-linejoin:round;">
<circle cx="31000" cy="48500" r="200" /> 
</g>
<g style="fill:#008400; fill-opacity:1.0; 
stroke:#008400; stroke-width:60; stroke-opacity:1; 
stroke-linecap:round; stroke-linejoin:round;">
</g>
<g style="fill:#008400; fill-opacity:0.0; 
stroke:#008400; stroke-width:60; stroke-opacity:1; 
stroke-linecap:round; stroke-linejoin:round;">
<path d="M31000 48500
L35000 48500
" />
<path d="M31000 42500
L31000 44000
" />
</g>
<g style="fill:#008400; fill-opacity:0.0; 
stroke:#008400; stroke-width:0; stroke-opacity:1; 
stroke-linecap:round; stroke-linejoin:round;">
<g >
</g>
<g style="fill:#840000; fill-opacity:0.0; 
stroke:#840000; stroke-width:0; stroke-opacity:1; 
stroke-linecap:round; stroke-linejoin:round;">
</g>
<g style="fill:#840000; fill-opacity:0.0; 
stroke:#840000; stroke-width:100; stroke-opacity:1; 
stroke-linecap:round; stroke-linejoin:round;">
<rect x="30600" y="31500" width="800" height="2000" rx="0" />
</g>
<g style="fill:#840000; fill-opacity:0.0; 
stroke:#840000; stroke-width:60; stroke-opacity:1; 
stroke-linecap:round; stroke-linejoin:round;">
<path d="M31000 31500
L31000 31000
" />
<path d="M31000 33500
L31000 34000
" />
</g>
<g style="fill:#008484; fill-opacity:0.0; 
stroke:#008484; stroke-width:60; stroke-opacity:1; 
stroke-linecap:round; stroke-linejoin:round;">
<path d="M32130 32280
L31970 32040
" />
<path d="M31850 32280
L31850 31780
L32040 31780
L32080 31810
L32110 31830
L32130 31880
L32130 31950
L32110 32000
L32080 32020
L32040 32040
L31850 32040
" />
<path d="M32610 32280
L32320 32280
" />
<path d="M32470 32280
L32470 31780
L32420 31850
L32370 31900
L32320 31920
" />
<path d="M32110 33190
L31820 33190
" />
<path d="M31960 33190
L31960 32690
L31920 32760
L31870 32810
L31820 32830
" />
<path d="M32420 32690
L32460 32690
L32510 32720
L32540 32740
L32560 32790
L32580 32880
L32580 33000
L32560 33100
L32540 33140
L32510 33170
L32460 33190
L32420 33190
L32370 33170
L32350 33140
L32320 33100
L32300 33000
L32300 32880
L32320 32790
L32350 32740
L32370 32720
L32420 32690
" />
<path d="M32800 33190
L32800 32690
" />
<path d="M32850 33000
L32990 33190
" />
<path d="M32990 32860
L32800 33050
" />
</g>
</g>
<g style="fill:#008400; fill-opacity:0.0; 
stroke:#008400; stroke-width:60; stroke-opacity:1; 
stroke-linecap:round; stroke-linejoin:round;">
<path d="M39000 41000
L39000 35000
" />
<path d="M39000 29500
L40500 29500
" />
</g>
<g style="fill:#008400; fill-opacity:0.0; 
stroke:#008400; stroke-width:0; stroke-opacity:1; 
stroke-linecap:round; stroke-linejoin:round;">
</g>
<g style="fill:#008400; fill-opacity:1.0; 
stroke:#008400; stroke-width:100; stroke-opacity:1; 
stroke-linecap:round; stroke-linejoin:round;">
<circle cx="39000" cy="35000" r="200" /> 
</g>
<g style="fill:#008400; fill-opacity:1.0; 
stroke:#008400; stroke-width:60; stroke-opacity:1; 
stroke-linecap:round; stroke-linejoin:round;">
</g>
<g style="fill:#008400; fill-opacity:0.0; 
stroke:#008400; stroke-width:60; stroke-opacity:1; 
stroke-linecap:round; stroke-linejoin:round;">
<path d="M39000 35000
L39000 29500
" />
<path d="M31000 31000
L31000 29500
" />
<path d="M31000 29500
L39000 29500
" />
</g>
<g style="fill:#008400; fill-opacity:0.0; 
stroke:#008400; stroke-width:0; stroke-opacity:1; 
stroke-linecap:round; stroke-linejoin:round;">
</g>
<g style="fill:#008400; fill-opacity:1.0; 
stroke:#008400; stroke-width:100; stroke-opacity:1; 
stroke-linecap:round; stroke-linejoin:round;">
<circle cx="39000" cy="29500" r="200" /> 
</g>
<g style="fill:#008400; fill-opacity:1.0; 
stroke:#008400; stroke-width:60; stroke-opacity:1; 
stroke-linecap:round; stroke-linejoin:round;">
</g>
<g style="fill:#008400; fill-opacity:0.0; 
stroke:#008400; stroke-width:60; stroke-opacity:1; 
stroke-linecap:round; stroke-linejoin:round;">
<path d="M39000 45000
L39000 48500
" />
<path d="M39000 48500
L35000 48500
" />
</g>
<g style="fill:#008400; fill-opacity:0.0; 
stroke:#008400; stroke-width:0; stroke-opacity:1; 
stroke-linecap:round; stroke-linejoin:round;">
</g>
<g style="fill:#008400; fill-opacity:1.0; 
stroke:#008400; stroke-width:100; stroke-opacity:1; 
stroke-linecap:round; stroke-linejoin:round;">
<circle cx="35000" cy="48500" r="200" /> 
</g>
<g style="fill:#008400; fill-opacity:1.0; 
stroke:#008400; stroke-width:0; stroke-opacity:1; 
stroke-linecap:round; stroke-linejoin:round;">
</g>
<g style="fill:#008400; fill-opacity:1.0; 
stroke:#008400; stroke-width:100; stroke-opacity:1; 
stroke-linecap:round; stroke-linejoin:round;">
<circle cx="39000" cy="48500" r="200" /> 
</g>
<g style="fill:#008400; fill-opacity:1.0; 
stroke:#008400; stroke-width:60; stroke-opacity:1; 
stroke-linecap:round; stroke-linejoin:round;">
</g>
<g style="fill:#008400; fill-opacity:0.0; 
stroke:#008400; stroke-width:60; stroke-opacity:1; 
stroke-linecap:round; stroke-linejoin:round;">
<path d="M52000 43000
L52000 44500
" />
<path d="M52000 48500
L52000 47500
" />
<path d="M52000 40000
L52000 29500
" />
<path d="M52000 29500
L49500 29500
" />
</g>
<g style="fill:#008400; fill-opacity:0.0; 
stroke:#008400; stroke-width:0; stroke-opacity:1; 
stroke-linecap:round; stroke-linejoin:round;">
</g>
<g style="fill:#008400; fill-opacity:1.0; 
stroke:#008400; stroke-width:100; stroke-opacity:1; 
stroke-linecap:round; stroke-linejoin:round;">
<circle cx="49500" cy="29500" r="200" /> 
</g>
<g style="fill:#008400; fill-opacity:1.0; 
stroke:#008400; stroke-width:60; stroke-opacity:1; 
stroke-linecap:round; stroke-linejoin:round;">
</g>
<g style="fill:#008400; fill-opacity:0.0; 
stroke:#008400; stroke-width:60; stroke-opacity:1; 
stroke-linecap:round; stroke-linejoin:round;">
<path d="M49500 29500
L45500 29500
" />
<path d="M49500 29500
L49500 43000
" />
<path d="M45500 45000
L45500 48500
" />
<path d="M49500 43000
L48500 43000
" />
</g>
<g style="fill:#008400; fill-opacity:0.0; 
stroke:#008400; stroke-width:0; stroke-opacity:1; 
stroke-linecap:round; stroke-linejoin:round;">
<g >
</g>
<g style="fill:#840000; fill-opacity:0.0; 
stroke:#840000; stroke-width:0; stroke-opacity:1; 
stroke-linecap:round; stroke-linejoin:round;">
</g>
<g style="fill:#840000; fill-opacity:0.0; 
stroke:#840000; stroke-width:100; stroke-opacity:1; 
stroke-linecap:round; stroke-linejoin:round;">
<circle cx="46000" cy="43000" r="1110" /> 
</g>
<g style="fill:#840000; fill-opacity:0.0; 
stroke:#840000; stroke-width:60; stroke-opacity:1; 
stroke-linecap:round; stroke-linejoin:round;">
<path style="fill:#840000; fill-opacity:0.0; 
stroke:#840000; stroke-width:60; stroke-opacity:1; 
stroke-linecap:round; stroke-linejoin:round;fill:none"
d="M 46250,42750
45500,42000
Z" /> 
<path style="fill:#840000; fill-opacity:0.0; 
stroke:#840000; stroke-width:60; stroke-opacity:1; 
stroke-linecap:round; stroke-linejoin:round;fill:none"
d="M 46250,43250
45500,44000
45500,44000
Z" /> 
</g>
<g style="fill:#840000; fill-opacity:0.0; 
stroke:#840000; stroke-width:200; stroke-opacity:1; 
stroke-linecap:round; stroke-linejoin:round;">
<path style="fill:#840000; fill-opacity:0.0; 
stroke:#840000; stroke-width:200; stroke-opacity:1; 
stroke-linecap:round; stroke-linejoin:round;fill:none"
d="M 46250,42250
46250,43750
46250,43750
Z" /> 
</g>
<g style="fill:#840000; fill-opacity:1.0; 
stroke:#840000; stroke-width:60; stroke-opacity:1; 
stroke-linecap:round; stroke-linejoin:round;">
<path style="fill:#840000; fill-opacity:1.0; 
stroke:#840000; stroke-width:60; stroke-opacity:1; 
stroke-linecap:round; stroke-linejoin:round;fill-rule:evenodd;"
d="M 46000,43700
45800,43500
45600,43900
46000,43700
46000,43700
Z" /> 
</g>
<g style="fill:#840000; fill-opacity:0.0; 
stroke:#840000; stroke-width:60; stroke-opacity:1; 
stroke-linecap:round; stroke-linejoin:round;">
<path d="M46250 43000
L48500 43000
" />
<path d="M47510 43570
L47220 43570
" />
<path d="M47370 43570
L47370 43070
L47320 43140
L47270 43190
L47220 43210
" />
<path d="M45500 44000
L45500 45000
" />
<path d="M45620 44640
L45600 44610
L45570 44570
L45570 44450
L45600 44400
L45620 44380
L45670 44350
L45710 44350
L45790 44380
L46070 44660
L46070 44350
" />
<path d="M45500 42000
L45500 41000
" />
<path d="M45570 41660
L45570 41350
L45760 41520
L45760 41450
L45790 41400
L45810 41380
L45860 41350
L45980 41350
L46020 41380
L46050 41400
L46070 41450
L46070 41590
L46050 41640
L46020 41660
" />
</g>
<g style="fill:#008484; fill-opacity:0.0; 
stroke:#008484; stroke-width:60; stroke-opacity:1; 
stroke-linecap:round; stroke-linejoin:round;">
<path d="M44010 42830
L43960 42810
L43910 42760
L43840 42690
L43790 42660
L43750 42660
" />
<path d="M43770 42780
L43720 42760
L43670 42710
L43650 42610
L43650 42450
L43670 42350
L43720 42310
L43770 42280
L43860 42280
L43910 42310
L43960 42350
L43980 42450
L43980 42610
L43960 42710
L43910 42760
L43860 42780
L43770 42780
" />
<path d="M44170 42330
L44200 42310
L44250 42280
L44360 42280
L44410 42310
L44440 42330
L44460 42380
L44460 42420
L44440 42500
L44150 42780
L44460 42780
" />
<path d="M43450 43360
L43450 43690
" />
<path d="M43340 43170
L43220 43520
L43530 43520
" />
<path d="M43740 43690
L43840 43690
L43880 43670
L43910 43640
L43950 43570
L43980 43480
L43980 43290
L43950 43240
L43930 43220
L43880 43190
L43790 43190
L43740 43220
L43720 43240
L43690 43290
L43690 43410
L43720 43450
L43740 43480
L43790 43500
L43880 43500
L43930 43480
L43950 43450
L43980 43410
" />
<path d="M44450 43690
L44170 43690
" />
<path d="M44310 43690
L44310 43190
L44260 43260
L44220 43310
L44170 43330
" />
</g>
</g>
<g style="fill:#008484; fill-opacity:0.0; 
stroke:#008484; stroke-width:0; stroke-opacity:1; 
stroke-linecap:round; stroke-linejoin:round;">
</g>
<g style="fill:#008400; fill-opacity:0.0; 
stroke:#008400; stroke-width:0; stroke-opacity:1; 
stroke-linecap:round; stroke-linejoin:round;">
</g>
<g style="fill:#008400; fill-opacity:1.0; 
stroke:#008400; stroke-width:100; stroke-opacity:1; 
stroke-linecap:round; stroke-linejoin:round;">
<circle cx="45500" cy="48500" r="200" /> 
</g>
<g style="fill:#008400; fill-opacity:1.0; 
stroke:#008400; stroke-width:60; stroke-opacity:1; 
stroke-linecap:round; stroke-linejoin:round;">
</g>
<g style="fill:#008400; fill-opacity:0.0; 
stroke:#008400; stroke-width:60; stroke-opacity:1; 
stroke-linecap:round; stroke-linejoin:round;">
<path d="M45500 48500
L39000 48500
" />
<path d="M45500 48500
L52000 48500
" />
<path d="M31000 34000
L31000 35000
" />
<path d="M36000 35000
L35000 35000
" />
</g>
<g style="fill:#008400; fill-opacity:0.0; 
stroke:#008400; stroke-width:0; stroke-opacity:1; 
stroke-linecap:round; stroke-linejoin:round;">
</g>
<g style="fill:#008400; fill-opacity:1.0; 
stroke:#008400; stroke-width:100; stroke-opacity:1; 
stroke-linecap:round; stroke-linejoin:round;">
<circle cx="31000" cy="35000" r="200" /> 
</g>
<g style="fill:#008400; fill-opacity:1.0; 
stroke:#008400; stroke-width:60; stroke-opacity:1; 
stroke-linecap:round; stroke-linejoin:round;">
</g>
<g style="fill:#008400; fill-opacity:0.0; 
stroke:#008400; stroke-width:60; stroke-opacity:1; 
stroke-linecap:round; stroke-linejoin:round;">
<path d="M31000 35000
L31000 39500
" />
<path d="M35000 36000
L35000 35000
" />
</g>
<g style="fill:#008400; fill-opacity:0.0; 
stroke:#008400; stroke-width:0; stroke-opacity:1; 
stroke-linecap:round; stroke-linejoin:round;">
</g>
<g style="fill:#008400; fill-opacity:1.0; 
stroke:#008400; stroke-width:100; stroke-opacity:1; 
stroke-linecap:round; stroke-linejoin:round;">
<circle cx="35000" cy="35000" r="200" /> 
</g>
<g style="fill:#008400; fill-opacity:1.0; 
stroke:#008400; stroke-width:60; stroke-opacity:1; 
stroke-linecap:round; stroke-linejoin:round;">
</g>
<g style="fill:#008400; fill-opacity:0.0; 
stroke:#008400; stroke-width:60; stroke-opacity:1; 
stroke-linecap:round; stroke-linejoin:round;">
<path d="M35000 35000
L31000 35000
" />
<path d="M45500 41000
L45500 40000
" />
<path d="M45500 40000
L35000 40000
" />
</g>
<g style="fill:#008400; fill-opacity:0.0; 
stroke:#008400; stroke-width:0; stroke-opacity:1; 
stroke-linecap:round; stroke-linejoin:round;">
</g>
<g style="fill:#008400; fill-opacity:1.0; 
stroke:#008400; stroke-width:100; stroke-opacity:1; 
stroke-linecap:round; stroke-linejoin:round;">
<circle cx="35000" cy="40000" r="200" /> 
</g>
<g style="fill:#008400; fill-opacity:1.0; 
stroke:#008400; stroke-width:60; stroke-opacity:1; 
stroke-linecap:round; stroke-linejoin:round;">
</g>
<g style="fill:#008400; fill-opacity:0.0; 
stroke:#008400; stroke-width:60; stroke-opacity:1; 
stroke-linecap:round; stroke-linejoin:round;">
<path d="M35000 40000
L35000 43000
" />
<path d="M24500 23000
L52000 23000
" />
<path d="M52000 23000
L52000 24000
" />
<path d="M52000 28000
L52000 29500
" />
</g>
<g style="fill:#008400; fill-opacity:0.0; 
stroke:#008400; stroke-width:0; stroke-opacity:1; 
stroke-linecap:round; stroke-linejoin:round;">
</g>
<g style="fill:#008400; fill-opacity:1.0; 
stroke:#008400; stroke-width:100; stroke-opacity:1; 
stroke-linecap:round; stroke-linejoin:round;">
<circle cx="52000" cy="29500" r="200" /> 
</g> 
</svg>
